<!--?xml version="1.0" standalone="no"?-->
              <svg id="sw-js-blob-svg" viewBox="0 0 100 100" xmlns="http://www.w3.org/2000/svg" version="1.1">
                    <defs> 
                        <linearGradient id="sw-gradient" x1="0" x2="1" y1="1" y2="0">
                            <stop id="stop1" stop-color="rgba(248, 117, 55, 1)" offset="0%"></stop>
                            <stop id="stop2" stop-color="rgba(251, 168, 31, 1)" offset="100%"></stop>
                        </linearGradient>
                    </defs>
                <path fill="url(#sw-gradient)" d="M16.2,-22.5C21.2,-15.1,25.6,-10.2,26.7,-4.7C27.7,0.9,25.4,7.1,22.3,13.3C19.2,19.5,15.4,25.6,10.2,27C5,28.5,-1.5,25.2,-7.3,22.2C-13.2,19.1,-18.3,16.4,-23.6,11.5C-28.8,6.7,-34.2,-0.1,-34,-6.9C-33.9,-13.7,-28.3,-20.3,-21.7,-27.4C-15.1,-34.5,-7.6,-42,-1,-40.9C5.6,-39.7,11.2,-29.9,16.2,-22.5Z" width="100%" height="100%" transform="translate(50 50)" stroke-width="0" style="transition: all 0.3s ease 0s;"></path>
              </svg>